<mxfile host="app.diagrams.net" modified="2024-01-29T05:27:43.812Z" agent="Mozilla/5.0 (Windows NT 10.0; Win64; x64) AppleWebKit/537.36 (KHTML, like Gecko) Chrome/120.0.0.0 Safari/537.36" etag="Wkmc2F1ccYxF8Z4JoKiB" version="23.0.2" type="github" pages="2">
  <diagram name="페이지-1" id="O5PY1F7fl65tvwcmvBG5">
    <mxGraphModel grid="1" page="1" gridSize="10" guides="1" tooltips="1" connect="1" arrows="1" fold="1" pageScale="1" pageWidth="827" pageHeight="1169" math="0" shadow="0">
      <root>
        <mxCell id="0" />
        <mxCell id="1" parent="0" />
        <mxCell id="8FDkT7Y1iTwKW1X2qY_I-3" value="고객" style="whiteSpace=wrap;html=1;align=center;fontSize=16;" vertex="1" parent="1">
          <mxGeometry x="-410" y="310" width="100" height="40" as="geometry" />
        </mxCell>
        <mxCell id="8FDkT7Y1iTwKW1X2qY_I-4" value="고객명" style="ellipse;whiteSpace=wrap;html=1;align=center;fontSize=16;" vertex="1" parent="1">
          <mxGeometry x="-580" y="250" width="100" height="40" as="geometry" />
        </mxCell>
        <mxCell id="8FDkT7Y1iTwKW1X2qY_I-5" value="" style="endArrow=none;html=1;rounded=0;fontSize=12;startSize=8;endSize=8;curved=1;entryX=0.5;entryY=0;entryDx=0;entryDy=0;exitX=0.5;exitY=1;exitDx=0;exitDy=0;" edge="1" parent="1" source="8FDkT7Y1iTwKW1X2qY_I-4" target="8FDkT7Y1iTwKW1X2qY_I-3">
          <mxGeometry relative="1" as="geometry">
            <mxPoint x="-560" y="330" as="sourcePoint" />
            <mxPoint x="-400" y="330" as="targetPoint" />
          </mxGeometry>
        </mxCell>
        <mxCell id="8FDkT7Y1iTwKW1X2qY_I-6" value="전화번호" style="ellipse;whiteSpace=wrap;html=1;align=center;fontStyle=4;fontSize=16;" vertex="1" parent="1">
          <mxGeometry x="-480" y="210" width="100" height="40" as="geometry" />
        </mxCell>
        <mxCell id="8FDkT7Y1iTwKW1X2qY_I-7" value="" style="endArrow=none;html=1;rounded=0;fontSize=12;startSize=8;endSize=8;curved=1;entryX=0.5;entryY=0;entryDx=0;entryDy=0;exitX=0.5;exitY=1;exitDx=0;exitDy=0;" edge="1" parent="1" source="8FDkT7Y1iTwKW1X2qY_I-6" target="8FDkT7Y1iTwKW1X2qY_I-3">
          <mxGeometry relative="1" as="geometry">
            <mxPoint x="-490" y="280" as="sourcePoint" />
            <mxPoint x="-400" y="320" as="targetPoint" />
          </mxGeometry>
        </mxCell>
        <mxCell id="8FDkT7Y1iTwKW1X2qY_I-8" value="이메일" style="ellipse;whiteSpace=wrap;html=1;align=center;fontStyle=4;fontSize=16;" vertex="1" parent="1">
          <mxGeometry x="-370" y="200" width="100" height="40" as="geometry" />
        </mxCell>
        <mxCell id="8FDkT7Y1iTwKW1X2qY_I-9" value="" style="endArrow=none;html=1;rounded=0;fontSize=12;startSize=8;endSize=8;curved=1;exitX=0;exitY=0.5;exitDx=0;exitDy=0;" edge="1" parent="1" source="8FDkT7Y1iTwKW1X2qY_I-8">
          <mxGeometry relative="1" as="geometry">
            <mxPoint x="-200" y="280" as="sourcePoint" />
            <mxPoint x="-360" y="310" as="targetPoint" />
          </mxGeometry>
        </mxCell>
        <mxCell id="8FDkT7Y1iTwKW1X2qY_I-10" value="고객코드" style="ellipse;whiteSpace=wrap;html=1;align=center;fontStyle=4;fontSize=16;" vertex="1" parent="1">
          <mxGeometry x="-270" y="230" width="100" height="40" as="geometry" />
        </mxCell>
        <mxCell id="8FDkT7Y1iTwKW1X2qY_I-11" value="" style="endArrow=none;html=1;rounded=0;fontSize=12;startSize=8;endSize=8;curved=1;exitX=0;exitY=0.5;exitDx=0;exitDy=0;entryX=0.5;entryY=0;entryDx=0;entryDy=0;" edge="1" parent="1" source="8FDkT7Y1iTwKW1X2qY_I-10" target="8FDkT7Y1iTwKW1X2qY_I-3">
          <mxGeometry relative="1" as="geometry">
            <mxPoint x="-360" y="230" as="sourcePoint" />
            <mxPoint x="-350" y="320" as="targetPoint" />
          </mxGeometry>
        </mxCell>
        <mxCell id="8FDkT7Y1iTwKW1X2qY_I-13" value="주소" style="ellipse;whiteSpace=wrap;html=1;align=center;fontSize=16;" vertex="1" parent="1">
          <mxGeometry x="-660" y="330" width="100" height="40" as="geometry" />
        </mxCell>
        <mxCell id="8FDkT7Y1iTwKW1X2qY_I-14" value="기본 주소" style="ellipse;whiteSpace=wrap;html=1;align=center;fontSize=16;" vertex="1" parent="1">
          <mxGeometry x="-800" y="290" width="100" height="40" as="geometry" />
        </mxCell>
        <mxCell id="8FDkT7Y1iTwKW1X2qY_I-15" value="상세 주소" style="ellipse;whiteSpace=wrap;html=1;align=center;fontSize=16;" vertex="1" parent="1">
          <mxGeometry x="-800" y="370" width="100" height="40" as="geometry" />
        </mxCell>
        <mxCell id="8FDkT7Y1iTwKW1X2qY_I-17" value="" style="endArrow=none;html=1;rounded=0;fontSize=12;startSize=8;endSize=8;curved=1;exitX=1;exitY=0.5;exitDx=0;exitDy=0;entryX=0;entryY=0.5;entryDx=0;entryDy=0;" edge="1" parent="1" source="8FDkT7Y1iTwKW1X2qY_I-13" target="8FDkT7Y1iTwKW1X2qY_I-3">
          <mxGeometry relative="1" as="geometry">
            <mxPoint x="-580" y="310" as="sourcePoint" />
            <mxPoint x="-410" y="330" as="targetPoint" />
          </mxGeometry>
        </mxCell>
        <mxCell id="8FDkT7Y1iTwKW1X2qY_I-18" value="" style="endArrow=none;html=1;rounded=0;fontSize=12;startSize=8;endSize=8;curved=1;entryX=0;entryY=0.5;entryDx=0;entryDy=0;exitX=1;exitY=0.5;exitDx=0;exitDy=0;" edge="1" parent="1" source="8FDkT7Y1iTwKW1X2qY_I-14" target="8FDkT7Y1iTwKW1X2qY_I-13">
          <mxGeometry relative="1" as="geometry">
            <mxPoint x="-740" y="300" as="sourcePoint" />
            <mxPoint x="-570" y="320" as="targetPoint" />
          </mxGeometry>
        </mxCell>
        <mxCell id="8FDkT7Y1iTwKW1X2qY_I-19" value="" style="endArrow=none;html=1;rounded=0;fontSize=12;startSize=8;endSize=8;curved=1;entryX=0;entryY=0.5;entryDx=0;entryDy=0;exitX=1;exitY=0.5;exitDx=0;exitDy=0;" edge="1" parent="1" source="8FDkT7Y1iTwKW1X2qY_I-15" target="8FDkT7Y1iTwKW1X2qY_I-13">
          <mxGeometry relative="1" as="geometry">
            <mxPoint x="-655" y="430" as="sourcePoint" />
            <mxPoint x="-485" y="450" as="targetPoint" />
          </mxGeometry>
        </mxCell>
        <mxCell id="8FDkT7Y1iTwKW1X2qY_I-21" value="가입일" style="ellipse;whiteSpace=wrap;html=1;align=center;fontSize=16;" vertex="1" parent="1">
          <mxGeometry x="-590" y="400" width="100" height="40" as="geometry" />
        </mxCell>
        <mxCell id="8FDkT7Y1iTwKW1X2qY_I-22" value="" style="endArrow=none;html=1;rounded=0;fontSize=12;startSize=8;endSize=8;curved=1;entryX=0;entryY=0.5;entryDx=0;entryDy=0;exitX=0.5;exitY=0;exitDx=0;exitDy=0;" edge="1" parent="1" source="8FDkT7Y1iTwKW1X2qY_I-21" target="8FDkT7Y1iTwKW1X2qY_I-3">
          <mxGeometry relative="1" as="geometry">
            <mxPoint x="-396" y="400" as="sourcePoint" />
            <mxPoint x="-356" y="360" as="targetPoint" />
          </mxGeometry>
        </mxCell>
        <mxCell id="8FDkT7Y1iTwKW1X2qY_I-24" value="" style="endArrow=none;html=1;rounded=0;fontSize=12;startSize=8;endSize=8;curved=1;entryX=0.5;entryY=1;entryDx=0;entryDy=0;exitX=0.5;exitY=0;exitDx=0;exitDy=0;" edge="1" parent="1" source="8FDkT7Y1iTwKW1X2qY_I-25" target="8FDkT7Y1iTwKW1X2qY_I-42">
          <mxGeometry relative="1" as="geometry">
            <mxPoint x="-490" y="480" as="sourcePoint" />
            <mxPoint x="-234" y="320" as="targetPoint" />
          </mxGeometry>
        </mxCell>
        <mxCell id="8FDkT7Y1iTwKW1X2qY_I-25" value="지역" style="whiteSpace=wrap;html=1;align=center;fontSize=16;" vertex="1" parent="1">
          <mxGeometry x="-410" y="620" width="100" height="40" as="geometry" />
        </mxCell>
        <mxCell id="8FDkT7Y1iTwKW1X2qY_I-26" value="지역명" style="ellipse;whiteSpace=wrap;html=1;align=center;fontSize=16;" vertex="1" parent="1">
          <mxGeometry x="-580" y="580" width="100" height="40" as="geometry" />
        </mxCell>
        <mxCell id="8FDkT7Y1iTwKW1X2qY_I-28" value="" style="endArrow=none;html=1;rounded=0;fontSize=12;startSize=8;endSize=8;curved=1;exitX=1;exitY=0.5;exitDx=0;exitDy=0;entryX=0;entryY=0.5;entryDx=0;entryDy=0;" edge="1" parent="1" source="8FDkT7Y1iTwKW1X2qY_I-26" target="8FDkT7Y1iTwKW1X2qY_I-25">
          <mxGeometry relative="1" as="geometry">
            <mxPoint x="-326" y="570" as="sourcePoint" />
            <mxPoint x="-176" y="550" as="targetPoint" />
          </mxGeometry>
        </mxCell>
        <mxCell id="8FDkT7Y1iTwKW1X2qY_I-29" value="" style="endArrow=none;html=1;rounded=0;fontSize=12;startSize=8;endSize=8;curved=1;exitX=1;exitY=0.5;exitDx=0;exitDy=0;entryX=0;entryY=0.5;entryDx=0;entryDy=0;" edge="1" parent="1" source="8FDkT7Y1iTwKW1X2qY_I-30" target="8FDkT7Y1iTwKW1X2qY_I-25">
          <mxGeometry relative="1" as="geometry">
            <mxPoint x="-330" y="670" as="sourcePoint" />
            <mxPoint x="-160" y="660" as="targetPoint" />
          </mxGeometry>
        </mxCell>
        <mxCell id="8FDkT7Y1iTwKW1X2qY_I-30" value="지역코드" style="ellipse;whiteSpace=wrap;html=1;align=center;fontStyle=4;fontSize=16;" vertex="1" parent="1">
          <mxGeometry x="-580" y="660" width="100" height="40" as="geometry" />
        </mxCell>
        <mxCell id="8FDkT7Y1iTwKW1X2qY_I-32" value="제품명" style="ellipse;whiteSpace=wrap;html=1;align=center;fontSize=16;" vertex="1" parent="1">
          <mxGeometry x="220" y="210" width="100" height="40" as="geometry" />
        </mxCell>
        <mxCell id="8FDkT7Y1iTwKW1X2qY_I-33" value="" style="endArrow=none;html=1;rounded=0;fontSize=12;startSize=8;endSize=8;curved=1;exitX=0.5;exitY=1;exitDx=0;exitDy=0;entryX=0.5;entryY=0;entryDx=0;entryDy=0;" edge="1" parent="1" source="8FDkT7Y1iTwKW1X2qY_I-32" target="8FDkT7Y1iTwKW1X2qY_I-31">
          <mxGeometry relative="1" as="geometry">
            <mxPoint x="230" y="295" as="sourcePoint" />
            <mxPoint x="260" y="355" as="targetPoint" />
          </mxGeometry>
        </mxCell>
        <mxCell id="8FDkT7Y1iTwKW1X2qY_I-35" value="제품코드" style="ellipse;whiteSpace=wrap;html=1;align=center;fontStyle=4;fontSize=16;" vertex="1" parent="1">
          <mxGeometry x="70" y="230" width="100" height="40" as="geometry" />
        </mxCell>
        <mxCell id="8FDkT7Y1iTwKW1X2qY_I-36" value="제품구분" style="ellipse;whiteSpace=wrap;html=1;align=center;fontSize=16;" vertex="1" parent="1">
          <mxGeometry x="350" y="230" width="100" height="40" as="geometry" />
        </mxCell>
        <mxCell id="8FDkT7Y1iTwKW1X2qY_I-38" value="제품색상" style="ellipse;shape=doubleEllipse;margin=3;whiteSpace=wrap;html=1;align=center;fontSize=16;" vertex="1" parent="1">
          <mxGeometry x="414" y="300" width="100" height="40" as="geometry" />
        </mxCell>
        <mxCell id="8FDkT7Y1iTwKW1X2qY_I-39" value="" style="endArrow=none;html=1;rounded=0;fontSize=12;startSize=8;endSize=8;curved=1;exitX=0;exitY=0.5;exitDx=0;exitDy=0;entryX=1;entryY=0.5;entryDx=0;entryDy=0;" edge="1" parent="1" source="8FDkT7Y1iTwKW1X2qY_I-38" target="8FDkT7Y1iTwKW1X2qY_I-31">
          <mxGeometry relative="1" as="geometry">
            <mxPoint x="390" y="315" as="sourcePoint" />
            <mxPoint x="340" y="385" as="targetPoint" />
          </mxGeometry>
        </mxCell>
        <mxCell id="8FDkT7Y1iTwKW1X2qY_I-40" value="제품가격" style="ellipse;whiteSpace=wrap;html=1;align=center;fontSize=16;" vertex="1" parent="1">
          <mxGeometry x="420" y="385" width="100" height="40" as="geometry" />
        </mxCell>
        <mxCell id="8FDkT7Y1iTwKW1X2qY_I-41" value="" style="endArrow=none;html=1;rounded=0;fontSize=12;startSize=8;endSize=8;curved=1;exitX=0;exitY=0.5;exitDx=0;exitDy=0;entryX=1;entryY=0.5;entryDx=0;entryDy=0;" edge="1" parent="1" source="8FDkT7Y1iTwKW1X2qY_I-40" target="8FDkT7Y1iTwKW1X2qY_I-31">
          <mxGeometry relative="1" as="geometry">
            <mxPoint x="350" y="405" as="sourcePoint" />
            <mxPoint x="270" y="455" as="targetPoint" />
          </mxGeometry>
        </mxCell>
        <mxCell id="8FDkT7Y1iTwKW1X2qY_I-42" value="관리" style="shape=rhombus;perimeter=rhombusPerimeter;whiteSpace=wrap;html=1;align=center;fontSize=16;" vertex="1" parent="1">
          <mxGeometry x="-420" y="470" width="120" height="60" as="geometry" />
        </mxCell>
        <mxCell id="8FDkT7Y1iTwKW1X2qY_I-43" value="" style="endArrow=none;html=1;rounded=0;fontSize=12;startSize=8;endSize=8;curved=1;entryX=0.5;entryY=1;entryDx=0;entryDy=0;exitX=0.5;exitY=0;exitDx=0;exitDy=0;" edge="1" parent="1" source="8FDkT7Y1iTwKW1X2qY_I-42" target="8FDkT7Y1iTwKW1X2qY_I-3">
          <mxGeometry relative="1" as="geometry">
            <mxPoint x="-370" y="410" as="sourcePoint" />
            <mxPoint x="-350" y="360" as="targetPoint" />
          </mxGeometry>
        </mxCell>
        <mxCell id="8FDkT7Y1iTwKW1X2qY_I-44" value="N" style="edgeLabel;html=1;align=center;verticalAlign=middle;resizable=0;points=[];fontSize=16;" vertex="1" connectable="0" parent="8FDkT7Y1iTwKW1X2qY_I-43">
          <mxGeometry x="0.05" y="2" relative="1" as="geometry">
            <mxPoint x="-8" y="53" as="offset" />
          </mxGeometry>
        </mxCell>
        <mxCell id="8FDkT7Y1iTwKW1X2qY_I-45" value="1" style="edgeLabel;html=1;align=center;verticalAlign=middle;resizable=0;points=[];fontSize=16;" vertex="1" connectable="0" parent="1">
          <mxGeometry x="-360" y="470" as="geometry">
            <mxPoint x="-12" y="67" as="offset" />
          </mxGeometry>
        </mxCell>
        <mxCell id="8FDkT7Y1iTwKW1X2qY_I-46" value="구매" style="shape=rhombus;perimeter=rhombusPerimeter;whiteSpace=wrap;html=1;align=center;fontSize=16;" vertex="1" parent="1">
          <mxGeometry x="-110" y="300" width="120" height="60" as="geometry" />
        </mxCell>
        <mxCell id="8FDkT7Y1iTwKW1X2qY_I-47" value="수량" style="ellipse;whiteSpace=wrap;html=1;align=center;fontSize=16;" vertex="1" parent="1">
          <mxGeometry x="-110" y="510" width="100" height="40" as="geometry" />
        </mxCell>
        <mxCell id="8FDkT7Y1iTwKW1X2qY_I-48" value="구매번호" style="ellipse;whiteSpace=wrap;html=1;align=center;fontStyle=4;fontSize=16;" vertex="1" parent="1">
          <mxGeometry x="-250" y="510" width="100" height="40" as="geometry" />
        </mxCell>
        <mxCell id="8FDkT7Y1iTwKW1X2qY_I-49" value="구매일자" style="ellipse;whiteSpace=wrap;html=1;align=center;fontSize=16;" vertex="1" parent="1">
          <mxGeometry x="30" y="510" width="100" height="40" as="geometry" />
        </mxCell>
        <mxCell id="8FDkT7Y1iTwKW1X2qY_I-50" value="" style="endArrow=none;html=1;rounded=0;fontSize=12;startSize=8;endSize=8;curved=1;entryX=0.5;entryY=1;entryDx=0;entryDy=0;" edge="1" parent="1" target="8FDkT7Y1iTwKW1X2qY_I-46">
          <mxGeometry relative="1" as="geometry">
            <mxPoint x="-200" y="510" as="sourcePoint" />
            <mxPoint x="-350" y="360" as="targetPoint" />
          </mxGeometry>
        </mxCell>
        <mxCell id="8FDkT7Y1iTwKW1X2qY_I-52" value="" style="endArrow=none;html=1;rounded=0;fontSize=12;startSize=8;endSize=8;curved=1;exitX=0.5;exitY=0;exitDx=0;exitDy=0;entryX=0.5;entryY=1;entryDx=0;entryDy=0;" edge="1" parent="1" source="8FDkT7Y1iTwKW1X2qY_I-47" target="8FDkT7Y1iTwKW1X2qY_I-46">
          <mxGeometry relative="1" as="geometry">
            <mxPoint x="-190" y="520" as="sourcePoint" />
            <mxPoint x="-60" y="430" as="targetPoint" />
          </mxGeometry>
        </mxCell>
        <mxCell id="8FDkT7Y1iTwKW1X2qY_I-53" value="" style="endArrow=none;html=1;rounded=0;fontSize=12;startSize=8;endSize=8;curved=1;entryX=0.5;entryY=1;entryDx=0;entryDy=0;exitX=0.5;exitY=0;exitDx=0;exitDy=0;" edge="1" parent="1" source="8FDkT7Y1iTwKW1X2qY_I-49" target="8FDkT7Y1iTwKW1X2qY_I-46">
          <mxGeometry relative="1" as="geometry">
            <mxPoint x="-180" y="530" as="sourcePoint" />
            <mxPoint x="-40" y="450" as="targetPoint" />
          </mxGeometry>
        </mxCell>
        <mxCell id="8FDkT7Y1iTwKW1X2qY_I-54" value="" style="endArrow=none;html=1;rounded=0;fontSize=12;startSize=8;endSize=8;curved=1;exitX=0;exitY=0.5;exitDx=0;exitDy=0;entryX=1;entryY=0.5;entryDx=0;entryDy=0;" edge="1" parent="1" source="8FDkT7Y1iTwKW1X2qY_I-46" target="8FDkT7Y1iTwKW1X2qY_I-3">
          <mxGeometry relative="1" as="geometry">
            <mxPoint x="-260" y="260" as="sourcePoint" />
            <mxPoint x="-350" y="320" as="targetPoint" />
          </mxGeometry>
        </mxCell>
        <mxCell id="8FDkT7Y1iTwKW1X2qY_I-55" value="" style="endArrow=none;html=1;rounded=0;fontSize=12;startSize=8;endSize=8;curved=1;exitX=0;exitY=0.5;exitDx=0;exitDy=0;entryX=1;entryY=0.5;entryDx=0;entryDy=0;" edge="1" parent="1" source="8FDkT7Y1iTwKW1X2qY_I-31" target="8FDkT7Y1iTwKW1X2qY_I-46">
          <mxGeometry relative="1" as="geometry">
            <mxPoint x="-110" y="410" as="sourcePoint" />
            <mxPoint x="-300" y="340" as="targetPoint" />
          </mxGeometry>
        </mxCell>
        <mxCell id="8FDkT7Y1iTwKW1X2qY_I-58" value="M" style="edgeLabel;html=1;align=center;verticalAlign=middle;resizable=0;points=[];fontSize=16;" vertex="1" connectable="0" parent="8FDkT7Y1iTwKW1X2qY_I-55">
          <mxGeometry x="0.0437" y="-3" relative="1" as="geometry">
            <mxPoint x="-90" y="-17" as="offset" />
          </mxGeometry>
        </mxCell>
        <mxCell id="8FDkT7Y1iTwKW1X2qY_I-56" value="" style="endArrow=none;html=1;rounded=0;fontSize=12;startSize=8;endSize=8;curved=1;exitX=1;exitY=0.5;exitDx=0;exitDy=0;entryX=0.5;entryY=0;entryDx=0;entryDy=0;" edge="1" parent="1" source="8FDkT7Y1iTwKW1X2qY_I-35" target="8FDkT7Y1iTwKW1X2qY_I-31">
          <mxGeometry relative="1" as="geometry">
            <mxPoint x="170" y="315" as="sourcePoint" />
            <mxPoint x="260" y="355" as="targetPoint" />
          </mxGeometry>
        </mxCell>
        <mxCell id="8FDkT7Y1iTwKW1X2qY_I-57" value="" style="endArrow=none;html=1;rounded=0;fontSize=12;startSize=8;endSize=8;curved=1;exitX=0.5;exitY=1;exitDx=0;exitDy=0;entryX=0.5;entryY=0;entryDx=0;entryDy=0;" edge="1" parent="1" source="8FDkT7Y1iTwKW1X2qY_I-36" target="8FDkT7Y1iTwKW1X2qY_I-31">
          <mxGeometry relative="1" as="geometry">
            <mxPoint x="400" y="270" as="sourcePoint" />
            <mxPoint x="260" y="355" as="targetPoint" />
          </mxGeometry>
        </mxCell>
        <mxCell id="8FDkT7Y1iTwKW1X2qY_I-31" value="제품" style="whiteSpace=wrap;html=1;align=center;fontSize=16;" vertex="1" parent="1">
          <mxGeometry x="220" y="310" width="100" height="40" as="geometry" />
        </mxCell>
        <mxCell id="8FDkT7Y1iTwKW1X2qY_I-60" value="N" style="edgeLabel;html=1;align=center;verticalAlign=middle;resizable=0;points=[];fontSize=16;" vertex="1" connectable="0" parent="1">
          <mxGeometry x="40" y="320" as="geometry">
            <mxPoint x="-153" y="-10" as="offset" />
          </mxGeometry>
        </mxCell>
      </root>
    </mxGraphModel>
  </diagram>
  <diagram id="EGDj5qrAgsuRoi-t64rZ" name="페이지-2">
    <mxGraphModel dx="1938" dy="572" grid="1" gridSize="10" guides="1" tooltips="1" connect="1" arrows="1" fold="1" page="1" pageScale="1" pageWidth="827" pageHeight="1169" math="0" shadow="0">
      <root>
        <mxCell id="0" />
        <mxCell id="1" parent="0" />
        <mxCell id="mxbmB8OxffNCbeexnUen-1" value="고객" style="whiteSpace=wrap;html=1;align=center;fontSize=16;" vertex="1" parent="1">
          <mxGeometry x="280" y="200" width="100" height="40" as="geometry" />
        </mxCell>
        <mxCell id="mxbmB8OxffNCbeexnUen-2" value="고객코드" style="ellipse;whiteSpace=wrap;html=1;align=center;fontStyle=4;fontSize=16;" vertex="1" parent="1">
          <mxGeometry x="160" y="80" width="100" height="40" as="geometry" />
        </mxCell>
        <mxCell id="mxbmB8OxffNCbeexnUen-4" value="고객 이메일" style="ellipse;whiteSpace=wrap;html=1;align=center;fontStyle=4;fontSize=16;" vertex="1" parent="1">
          <mxGeometry x="280" y="80" width="100" height="40" as="geometry" />
        </mxCell>
        <mxCell id="mxbmB8OxffNCbeexnUen-6" value="고객명" style="ellipse;whiteSpace=wrap;html=1;align=center;fontSize=16;" vertex="1" parent="1">
          <mxGeometry x="400" y="80" width="100" height="40" as="geometry" />
        </mxCell>
        <mxCell id="mxbmB8OxffNCbeexnUen-8" value="" style="endArrow=none;html=1;rounded=0;fontSize=12;startSize=8;endSize=8;curved=1;entryX=0.5;entryY=0;entryDx=0;entryDy=0;exitX=0.5;exitY=1;exitDx=0;exitDy=0;" edge="1" parent="1" source="mxbmB8OxffNCbeexnUen-2" target="mxbmB8OxffNCbeexnUen-1">
          <mxGeometry relative="1" as="geometry">
            <mxPoint x="220" y="100" as="sourcePoint" />
            <mxPoint x="380" y="100" as="targetPoint" />
          </mxGeometry>
        </mxCell>
        <mxCell id="mxbmB8OxffNCbeexnUen-10" value="" style="endArrow=none;html=1;rounded=0;fontSize=12;startSize=8;endSize=8;curved=1;entryX=0.5;entryY=0;entryDx=0;entryDy=0;exitX=0.5;exitY=1;exitDx=0;exitDy=0;" edge="1" parent="1" source="mxbmB8OxffNCbeexnUen-4" target="mxbmB8OxffNCbeexnUen-1">
          <mxGeometry relative="1" as="geometry">
            <mxPoint x="220" y="130" as="sourcePoint" />
            <mxPoint x="340" y="210" as="targetPoint" />
          </mxGeometry>
        </mxCell>
        <mxCell id="mxbmB8OxffNCbeexnUen-11" value="" style="endArrow=none;html=1;rounded=0;fontSize=12;startSize=8;endSize=8;curved=1;entryX=0.5;entryY=0;entryDx=0;entryDy=0;exitX=0.5;exitY=1;exitDx=0;exitDy=0;" edge="1" parent="1" source="mxbmB8OxffNCbeexnUen-6" target="mxbmB8OxffNCbeexnUen-1">
          <mxGeometry relative="1" as="geometry">
            <mxPoint x="230" y="140" as="sourcePoint" />
            <mxPoint x="350" y="220" as="targetPoint" />
          </mxGeometry>
        </mxCell>
        <mxCell id="mxbmB8OxffNCbeexnUen-12" value="포인트" style="whiteSpace=wrap;html=1;align=center;fontSize=16;" vertex="1" parent="1">
          <mxGeometry x="390" y="870" width="100" height="40" as="geometry" />
        </mxCell>
        <mxCell id="mxbmB8OxffNCbeexnUen-13" value="공부시간" style="ellipse;whiteSpace=wrap;html=1;align=center;fontSize=16;" vertex="1" parent="1">
          <mxGeometry x="80" y="200" width="100" height="40" as="geometry" />
        </mxCell>
        <mxCell id="mxbmB8OxffNCbeexnUen-14" value="실시간 time" style="ellipse;whiteSpace=wrap;html=1;align=center;fontSize=16;" vertex="1" parent="1">
          <mxGeometry x="-60" y="160" width="100" height="40" as="geometry" />
        </mxCell>
        <mxCell id="mxbmB8OxffNCbeexnUen-15" value="&lt;font style=&quot;font-size: 13px;&quot;&gt;주 당 누적 시간&lt;/font&gt;" style="ellipse;whiteSpace=wrap;html=1;align=center;fontSize=16;" vertex="1" parent="1">
          <mxGeometry x="-60" y="230" width="100" height="50" as="geometry" />
        </mxCell>
        <mxCell id="mxbmB8OxffNCbeexnUen-16" value="" style="endArrow=none;html=1;rounded=0;fontSize=12;startSize=8;endSize=8;curved=1;entryX=0;entryY=0.5;entryDx=0;entryDy=0;exitX=1;exitY=0.5;exitDx=0;exitDy=0;" edge="1" parent="1" source="mxbmB8OxffNCbeexnUen-14" target="mxbmB8OxffNCbeexnUen-13">
          <mxGeometry relative="1" as="geometry">
            <mxPoint x="220" y="150" as="sourcePoint" />
            <mxPoint x="340" y="230" as="targetPoint" />
          </mxGeometry>
        </mxCell>
        <mxCell id="mxbmB8OxffNCbeexnUen-17" value="" style="endArrow=none;html=1;rounded=0;fontSize=12;startSize=8;endSize=8;curved=1;entryX=0;entryY=0.5;entryDx=0;entryDy=0;exitX=1;exitY=0.5;exitDx=0;exitDy=0;" edge="1" parent="1" source="mxbmB8OxffNCbeexnUen-15" target="mxbmB8OxffNCbeexnUen-13">
          <mxGeometry relative="1" as="geometry">
            <mxPoint x="50" y="190" as="sourcePoint" />
            <mxPoint x="100" y="250" as="targetPoint" />
          </mxGeometry>
        </mxCell>
        <mxCell id="mxbmB8OxffNCbeexnUen-19" value="" style="endArrow=none;html=1;rounded=0;fontSize=12;startSize=8;endSize=8;curved=1;entryX=0;entryY=0.5;entryDx=0;entryDy=0;exitX=1;exitY=0.5;exitDx=0;exitDy=0;" edge="1" parent="1" source="mxbmB8OxffNCbeexnUen-13" target="mxbmB8OxffNCbeexnUen-1">
          <mxGeometry relative="1" as="geometry">
            <mxPoint x="70" y="300" as="sourcePoint" />
            <mxPoint x="230" y="300" as="targetPoint" />
          </mxGeometry>
        </mxCell>
        <mxCell id="mxbmB8OxffNCbeexnUen-20" value="글" style="whiteSpace=wrap;html=1;align=center;fontSize=16;" vertex="1" parent="1">
          <mxGeometry x="-700" y="370" width="100" height="40" as="geometry" />
        </mxCell>
        <mxCell id="mxbmB8OxffNCbeexnUen-21" value="스터디" style="whiteSpace=wrap;html=1;align=center;fontSize=16;" vertex="1" parent="1">
          <mxGeometry x="280" y="540" width="100" height="40" as="geometry" />
        </mxCell>
        <mxCell id="mxbmB8OxffNCbeexnUen-22" value="등록" style="shape=rhombus;perimeter=rhombusPerimeter;whiteSpace=wrap;html=1;align=center;fontSize=16;" vertex="1" parent="1">
          <mxGeometry x="270" y="370" width="120" height="60" as="geometry" />
        </mxCell>
        <mxCell id="mxbmB8OxffNCbeexnUen-23" value="" style="endArrow=none;html=1;rounded=0;fontSize=12;startSize=8;endSize=8;curved=1;entryX=0.5;entryY=0;entryDx=0;entryDy=0;exitX=0.5;exitY=1;exitDx=0;exitDy=0;" edge="1" parent="1" source="mxbmB8OxffNCbeexnUen-1" target="mxbmB8OxffNCbeexnUen-22">
          <mxGeometry relative="1" as="geometry">
            <mxPoint x="190" y="230" as="sourcePoint" />
            <mxPoint x="290" y="230" as="targetPoint" />
          </mxGeometry>
        </mxCell>
        <mxCell id="mxbmB8OxffNCbeexnUen-25" value="N" style="edgeLabel;html=1;align=center;verticalAlign=middle;resizable=0;points=[];fontSize=16;" vertex="1" connectable="0" parent="mxbmB8OxffNCbeexnUen-23">
          <mxGeometry x="0.1046" y="-2" relative="1" as="geometry">
            <mxPoint x="-8" y="48" as="offset" />
          </mxGeometry>
        </mxCell>
        <mxCell id="mxbmB8OxffNCbeexnUen-24" value="" style="endArrow=none;html=1;rounded=0;fontSize=12;startSize=8;endSize=8;curved=1;entryX=0.5;entryY=0;entryDx=0;entryDy=0;exitX=0.5;exitY=1;exitDx=0;exitDy=0;" edge="1" parent="1" source="mxbmB8OxffNCbeexnUen-22" target="mxbmB8OxffNCbeexnUen-21">
          <mxGeometry relative="1" as="geometry">
            <mxPoint x="200" y="240" as="sourcePoint" />
            <mxPoint x="300" y="240" as="targetPoint" />
          </mxGeometry>
        </mxCell>
        <mxCell id="mxbmB8OxffNCbeexnUen-26" value="M" style="edgeLabel;html=1;align=center;verticalAlign=middle;resizable=0;points=[];fontSize=16;" vertex="1" connectable="0" parent="mxbmB8OxffNCbeexnUen-24">
          <mxGeometry x="-0.0122" relative="1" as="geometry">
            <mxPoint x="-10" y="-47" as="offset" />
          </mxGeometry>
        </mxCell>
        <mxCell id="mxbmB8OxffNCbeexnUen-29" value="인원수" style="ellipse;whiteSpace=wrap;html=1;align=center;fontSize=16;" vertex="1" parent="1">
          <mxGeometry x="100" y="540" width="100" height="40" as="geometry" />
        </mxCell>
        <mxCell id="mxbmB8OxffNCbeexnUen-30" value="현재 인원" style="ellipse;whiteSpace=wrap;html=1;align=center;fontSize=16;" vertex="1" parent="1">
          <mxGeometry x="-60" y="505" width="100" height="40" as="geometry" />
        </mxCell>
        <mxCell id="mxbmB8OxffNCbeexnUen-32" value="최대인원" style="ellipse;whiteSpace=wrap;html=1;align=center;fontSize=16;" vertex="1" parent="1">
          <mxGeometry x="-60" y="580" width="100" height="40" as="geometry" />
        </mxCell>
        <mxCell id="mxbmB8OxffNCbeexnUen-33" value="" style="endArrow=none;html=1;rounded=0;fontSize=12;startSize=8;endSize=8;curved=1;entryX=1;entryY=0.5;entryDx=0;entryDy=0;exitX=0;exitY=0.5;exitDx=0;exitDy=0;" edge="1" parent="1" source="mxbmB8OxffNCbeexnUen-29" target="mxbmB8OxffNCbeexnUen-30">
          <mxGeometry relative="1" as="geometry">
            <mxPoint x="340" y="440" as="sourcePoint" />
            <mxPoint x="340" y="555" as="targetPoint" />
          </mxGeometry>
        </mxCell>
        <mxCell id="mxbmB8OxffNCbeexnUen-35" value="" style="endArrow=none;html=1;rounded=0;fontSize=12;startSize=8;endSize=8;curved=1;entryX=0;entryY=0.5;entryDx=0;entryDy=0;exitX=1;exitY=0.5;exitDx=0;exitDy=0;" edge="1" parent="1" source="mxbmB8OxffNCbeexnUen-32" target="mxbmB8OxffNCbeexnUen-29">
          <mxGeometry relative="1" as="geometry">
            <mxPoint x="350" y="450" as="sourcePoint" />
            <mxPoint x="350" y="565" as="targetPoint" />
          </mxGeometry>
        </mxCell>
        <mxCell id="mxbmB8OxffNCbeexnUen-37" value="" style="endArrow=none;html=1;rounded=0;fontSize=12;startSize=8;endSize=8;curved=1;entryX=0;entryY=0.5;entryDx=0;entryDy=0;exitX=1;exitY=0.5;exitDx=0;exitDy=0;" edge="1" parent="1" source="mxbmB8OxffNCbeexnUen-29" target="mxbmB8OxffNCbeexnUen-21">
          <mxGeometry relative="1" as="geometry">
            <mxPoint x="50" y="610" as="sourcePoint" />
            <mxPoint x="110" y="570" as="targetPoint" />
          </mxGeometry>
        </mxCell>
        <mxCell id="mxbmB8OxffNCbeexnUen-38" value="참여 상태" style="ellipse;whiteSpace=wrap;html=1;align=center;fontSize=16;" vertex="1" parent="1">
          <mxGeometry x="55" y="310" width="100" height="40" as="geometry" />
        </mxCell>
        <mxCell id="mxbmB8OxffNCbeexnUen-39" value="" style="endArrow=none;html=1;rounded=0;fontSize=12;startSize=8;endSize=8;curved=1;entryX=0;entryY=0.5;entryDx=0;entryDy=0;exitX=1;exitY=0.5;exitDx=0;exitDy=0;" edge="1" parent="1" source="mxbmB8OxffNCbeexnUen-38" target="mxbmB8OxffNCbeexnUen-22">
          <mxGeometry relative="1" as="geometry">
            <mxPoint x="190" y="230" as="sourcePoint" />
            <mxPoint x="290" y="230" as="targetPoint" />
          </mxGeometry>
        </mxCell>
        <mxCell id="mxbmB8OxffNCbeexnUen-40" value="방장/일반회원(OR 유령회원)" style="text;html=1;align=center;verticalAlign=middle;resizable=0;points=[];autosize=1;strokeColor=none;fillColor=none;fontSize=16;" vertex="1" parent="1">
          <mxGeometry x="-20" y="350" width="230" height="30" as="geometry" />
        </mxCell>
        <mxCell id="mxbmB8OxffNCbeexnUen-41" value="기한" style="ellipse;whiteSpace=wrap;html=1;align=center;fontSize=16;" vertex="1" parent="1">
          <mxGeometry x="280" y="620" width="100" height="40" as="geometry" />
        </mxCell>
        <mxCell id="mxbmB8OxffNCbeexnUen-42" value="진행기한" style="ellipse;whiteSpace=wrap;html=1;align=center;fontSize=16;" vertex="1" parent="1">
          <mxGeometry x="180" y="720" width="100" height="40" as="geometry" />
        </mxCell>
        <mxCell id="mxbmB8OxffNCbeexnUen-43" value="설정기한" style="ellipse;whiteSpace=wrap;html=1;align=center;fontSize=16;" vertex="1" parent="1">
          <mxGeometry x="380" y="720" width="100" height="40" as="geometry" />
        </mxCell>
        <mxCell id="mxbmB8OxffNCbeexnUen-44" value="" style="endArrow=none;html=1;rounded=0;fontSize=12;startSize=8;endSize=8;curved=1;entryX=0.5;entryY=1;entryDx=0;entryDy=0;exitX=0.5;exitY=0;exitDx=0;exitDy=0;" edge="1" parent="1" source="mxbmB8OxffNCbeexnUen-42" target="mxbmB8OxffNCbeexnUen-41">
          <mxGeometry relative="1" as="geometry">
            <mxPoint x="50" y="610" as="sourcePoint" />
            <mxPoint x="110" y="570" as="targetPoint" />
          </mxGeometry>
        </mxCell>
        <mxCell id="mxbmB8OxffNCbeexnUen-45" value="" style="endArrow=none;html=1;rounded=0;fontSize=12;startSize=8;endSize=8;curved=1;entryX=0.5;entryY=1;entryDx=0;entryDy=0;exitX=0.5;exitY=0;exitDx=0;exitDy=0;" edge="1" parent="1" source="mxbmB8OxffNCbeexnUen-43" target="mxbmB8OxffNCbeexnUen-41">
          <mxGeometry relative="1" as="geometry">
            <mxPoint x="60" y="620" as="sourcePoint" />
            <mxPoint x="120" y="580" as="targetPoint" />
          </mxGeometry>
        </mxCell>
        <mxCell id="mxbmB8OxffNCbeexnUen-46" value="" style="endArrow=none;html=1;rounded=0;fontSize=12;startSize=8;endSize=8;curved=1;entryX=0.5;entryY=1;entryDx=0;entryDy=0;exitX=0.5;exitY=0;exitDx=0;exitDy=0;" edge="1" parent="1" source="mxbmB8OxffNCbeexnUen-41" target="mxbmB8OxffNCbeexnUen-21">
          <mxGeometry relative="1" as="geometry">
            <mxPoint x="70" y="630" as="sourcePoint" />
            <mxPoint x="130" y="590" as="targetPoint" />
          </mxGeometry>
        </mxCell>
        <mxCell id="mxbmB8OxffNCbeexnUen-47" value="방법" style="ellipse;whiteSpace=wrap;html=1;align=center;fontSize=16;" vertex="1" parent="1">
          <mxGeometry x="65" y="440" width="100" height="40" as="geometry" />
        </mxCell>
        <mxCell id="mxbmB8OxffNCbeexnUen-48" value="자동/수동" style="text;html=1;align=center;verticalAlign=middle;resizable=0;points=[];autosize=1;strokeColor=none;fillColor=none;fontSize=16;" vertex="1" parent="1">
          <mxGeometry x="60" y="410" width="90" height="30" as="geometry" />
        </mxCell>
        <mxCell id="mxbmB8OxffNCbeexnUen-49" value="" style="endArrow=none;html=1;rounded=0;fontSize=12;startSize=8;endSize=8;curved=1;entryX=0;entryY=0.5;entryDx=0;entryDy=0;exitX=1;exitY=0.5;exitDx=0;exitDy=0;" edge="1" parent="1" source="mxbmB8OxffNCbeexnUen-47" target="mxbmB8OxffNCbeexnUen-22">
          <mxGeometry relative="1" as="geometry">
            <mxPoint x="180" y="340" as="sourcePoint" />
            <mxPoint x="280" y="410" as="targetPoint" />
          </mxGeometry>
        </mxCell>
      </root>
    </mxGraphModel>
  </diagram>
</mxfile>
